<svg width="38" height="42" viewBox="0 0 38 42" fill="none" xmlns="http://www.w3.org/2000/svg">
<path d="M12.5013 25.0954C15.0373 25.0954 17.1 23.0458 17.1 20.5095C17.1 17.9732 15.0374 15.9236 12.5013 15.9236C9.96547 15.9237 7.90271 17.9733 7.90271 20.5095C7.90273 23.0457 9.96548 25.0953 12.5013 25.0954Z" stroke="#FFE0D0" stroke-width="2.15365" stroke-miterlimit="10"/>
<path d="M6.06067 35.3783C5.17544 35.3783 4.45782 34.6607 4.45782 33.7755C4.45782 29.3494 8.05911 25.7613 12.5017 25.7613C16.9441 25.7613 20.5455 29.3494 20.5455 33.7755" stroke="#FFE0D0" stroke-width="2.15365" stroke-miterlimit="10"/>
<g clip-path="url(#clip0_19_100)">
<path d="M29.2249 0.419022C24.9289 0.419022 21.4341 3.9138 21.4341 8.20982C21.4341 12.5058 24.9289 16.0006 29.2249 16.0006C33.5209 16.0006 37.0157 12.5058 37.0157 8.20982C37.0157 3.9138 33.5209 0.419022 29.2249 0.419022Z" fill="#2563EB"/>
<path d="M29.7336 7.33245C30.2444 7.43914 30.8231 7.56004 31.3133 7.8832C31.7604 8.17802 32.2935 8.7569 32.2935 9.84114C32.2935 10.9464 31.5206 11.8877 30.447 12.2314V12.4764C30.447 12.972 30.0452 13.3739 29.5496 13.3739C29.0539 13.3739 28.6521 12.972 28.6521 12.4764V12.2337C28.0564 12.0455 27.5438 11.6713 27.2038 11.1557C26.931 10.7418 27.0453 10.1852 27.4591 9.91234C27.8728 9.63958 28.4295 9.75371 28.7024 10.1675C28.8686 10.4196 29.1931 10.5761 29.5496 10.5761C30.0639 10.5761 30.4986 10.2395 30.4986 9.84114C30.4986 9.42418 30.457 9.31708 29.3661 9.08942L29.3638 9.08889C28.8524 8.98074 28.2739 8.85839 27.7856 8.53619C27.3385 8.24107 26.8054 7.66189 26.8054 6.5784C26.8054 5.47404 27.5785 4.53355 28.652 4.19019V3.94316C28.652 3.44752 29.0538 3.04567 29.5495 3.04567C30.0451 3.04567 30.447 3.44752 30.447 3.94316V4.18757C31.0431 4.37537 31.5556 4.74902 31.8951 5.26388C32.168 5.6777 32.0537 6.23436 31.6399 6.5072C31.2262 6.78003 30.6695 6.6659 30.3966 6.25201C30.2313 6.00132 29.9067 5.8456 29.5495 5.8456C29.0351 5.8456 28.6004 6.18119 28.6004 6.5784C28.6004 6.99439 28.6421 7.10156 29.7329 7.33229L29.7336 7.33245Z" fill="white"/>
</g>
<path d="M8.56372 10.9064C8.51506 10.2173 8.07552 9.71392 7.58315 9.78183C7.40401 9.8065 7.28105 9.60861 7.38532 9.46087C10.5994 4.90712 15.3619 3.10582 19.8889 4.96201C20.3641 5.15686 20.8625 4.77614 21.0019 4.11176C21.1413 3.44728 20.869 2.75061 20.3937 2.55576C17.4195 1.33639 14.3057 1.48245 11.3892 2.97827C9.35392 4.02211 7.54825 5.65227 6.06361 7.76789C5.97259 7.8976 5.76558 7.84237 5.75443 7.68431C5.70578 6.99517 5.26631 6.4921 4.77386 6.5597C4.28088 6.62772 3.92071 7.24132 3.96929 7.93046L4.22146 11.5051C4.2672 12.1523 4.65727 12.6359 5.11295 12.6359C5.1424 12.6359 5.17214 12.6339 5.20204 12.6297L7.75915 12.2772C8.25206 12.2093 8.6123 11.5956 8.56372 10.9064Z" fill="#FFE0D0"/>
<path d="M31.2662 20.6716C31.5491 21.3016 32.0989 21.6332 32.4934 21.4131C32.6403 21.3311 32.8149 21.4581 32.78 21.6226C31.6521 26.9261 28.2337 30.1393 23.7295 29.8398C23.2575 29.8084 22.9676 30.3234 23.0821 30.9899C23.1966 31.6566 23.6721 32.2224 24.1442 32.2538C27.0981 32.4502 29.692 31.3233 31.6452 28.9951C33.0057 27.3733 33.9671 25.2772 34.4873 22.8295C34.5184 22.6835 34.721 22.6599 34.7821 22.7961C35.065 23.426 35.6147 23.7574 36.0093 23.5375C36.4042 23.3171 36.4951 22.6279 36.2123 21.9979L34.745 18.7303C34.4792 18.1387 33.9784 17.8098 33.5913 17.9547C33.5663 17.9641 33.5417 17.9754 33.5178 17.9888L31.4691 19.132C31.0742 19.3523 30.9833 20.0417 31.2662 20.6716Z" fill="#FFE0D0"/>
<defs>
<clipPath id="clip0_19_100">
<rect width="15.5816" height="15.5816" fill="white" transform="translate(21.4341 0.419022)"/>
</clipPath>
</defs>
</svg>
