<svg width="38" height="42" viewBox="0 0 38 42" fill="none" xmlns="http://www.w3.org/2000/svg">
<path d="M29.3321 39.8773C29.2531 39.8773 29.1723 39.8737 29.0932 39.8683C13.6284 38.6703 1.12353 26.1744 0.00811852 10.7993C-0.0529507 9.96772 0.232638 9.14149 0.793038 8.53439C1.34985 7.93268 2.10603 7.5986 2.92687 7.59141L9.30861 7.54651C10.6683 7.54651 11.8466 8.46075 12.1753 9.76835L13.508 15.0616C13.799 16.2112 13.3697 17.4146 12.4142 18.1259L9.76662 20.098C12.0046 24.2454 15.473 27.7317 19.6455 30.029L21.6913 27.3222C22.4026 26.3774 23.606 25.9499 24.7627 26.2373L30.0937 27.5611C31.4121 27.888 32.3299 29.0591 32.3299 30.4098V36.9424C32.3299 37.7614 31.9976 38.5176 31.3959 39.0762C30.8391 39.5917 30.0973 39.8773 29.3321 39.8773ZM9.31399 9.34266L2.93944 9.38757C2.62152 9.39116 2.32695 9.52048 2.11321 9.75398C1.88869 9.99646 1.77374 10.3305 1.79888 10.6682C2.85143 25.1632 14.645 36.946 29.2315 38.0757C29.5872 38.1099 29.9267 37.9877 30.1763 37.756C30.408 37.5441 30.5338 37.2549 30.5338 36.9424V30.4098C30.5338 29.8871 30.1745 29.4327 29.6608 29.3051L24.3298 27.9814C23.8808 27.8664 23.403 28.0334 23.1264 28.4035L20.619 31.7227C20.3568 32.0694 19.8826 32.1808 19.4946 31.9814C14.4618 29.4075 10.3145 25.2368 7.816 20.2345C7.62022 19.8466 7.73338 19.3724 8.08183 19.1137L11.3419 16.6853C11.7119 16.4105 11.8789 15.9453 11.7657 15.5017L10.4348 10.2066C10.3055 9.6983 9.84386 9.34266 9.31399 9.34266Z" fill="#FFE0D0"/>
<path d="M28.5606 17.1734H27.3633C26.3731 17.1734 25.5673 16.3676 25.5673 15.3775V12.3842H22.5741C21.5839 12.3842 20.7782 11.5784 20.7782 10.5883V9.39097C20.7782 8.40081 21.5839 7.59503 22.5741 7.59503H25.5673V4.60179C25.5673 3.61163 26.3731 2.80585 27.3633 2.80585H28.5606C29.5507 2.80585 30.3565 3.61163 30.3565 4.60179V7.59503H33.3498C34.3399 7.59503 35.1457 8.40081 35.1457 9.39097V10.5883C35.1457 11.5784 34.3399 12.3842 33.3498 12.3842H30.3565V15.3775C30.3565 16.3676 29.5507 17.1734 28.5606 17.1734Z" fill="#2563EB"/>
</svg>
