<svg width="38" height="42" viewBox="0 0 38 42" fill="none" xmlns="http://www.w3.org/2000/svg">
<path d="M22.2941 39.9279C22.2341 39.9279 22.1726 39.9251 22.1126 39.921C10.3583 39.0105 0.853948 29.5129 0.00617055 17.8269C-0.0402456 17.1948 0.176818 16.5669 0.602755 16.1054C1.02596 15.6481 1.6007 15.3942 2.22459 15.3887L7.07508 15.3546C8.10852 15.3546 9.00408 16.0495 9.25391 17.0433L10.2669 21.0665C10.488 21.9402 10.1618 22.8549 9.43548 23.3955L7.4232 24.8945C9.12422 28.0467 11.7604 30.6965 14.9317 32.4426L16.4866 30.3852C17.0273 29.6672 17.9419 29.3422 18.8211 29.5607L22.873 30.5668C23.875 30.8153 24.5726 31.7054 24.5726 32.732V37.6971C24.5726 38.3197 24.3201 38.8944 23.8627 39.319C23.4395 39.7108 22.8757 39.9279 22.2941 39.9279ZM7.07918 16.7198L2.23415 16.7539C1.99251 16.7566 1.76862 16.8549 1.60616 17.0324C1.43552 17.2167 1.34814 17.4706 1.36726 17.7273C2.16725 28.7443 11.131 37.6999 22.2177 38.5586C22.488 38.5845 22.746 38.4917 22.9358 38.3156C23.1119 38.1545 23.2074 37.9347 23.2074 37.6971V32.732C23.2074 32.3347 22.9344 31.9893 22.544 31.8924L18.4921 30.8863C18.1508 30.7989 17.7877 30.9258 17.5774 31.2071L15.6716 33.7299C15.4723 33.9934 15.1119 34.0781 14.817 33.9265C10.9918 31.9702 7.83958 28.8003 5.94062 24.9982C5.79181 24.7034 5.87782 24.3429 6.14266 24.1464L8.62047 22.3006C8.90169 22.0918 9.02866 21.7382 8.94265 21.401L7.93105 17.3764C7.83276 16.9901 7.4819 16.7198 7.07918 16.7198Z" fill="#FFE0D0"/>
<path d="M16.5076 13.3742C18.1146 13.3742 19.4237 12.0747 19.4237 10.4641C19.4236 8.85352 18.1145 7.55496 16.5076 7.55489C14.9007 7.55489 13.5907 8.85347 13.5907 10.4641C13.5907 12.0747 14.9006 13.3742 16.5076 13.3742Z" stroke="#FFE0D0" stroke-width="2.13" stroke-miterlimit="10"/>
<path d="M12.7473 20.1964C12.2305 20.1964 11.8116 19.7775 11.8116 19.2607C11.8116 16.6768 13.9139 14.5821 16.5074 14.5821C19.1009 14.5821 21.2033 16.6768 21.2033 19.2607" stroke="#FFE0D0" stroke-width="2.13" stroke-miterlimit="10"/>
<path d="M33.7197 6.51906C33.7197 8.4871 32.1184 10.0825 30.1431 10.0825C28.1678 10.0825 26.5665 8.4871 26.5665 6.51906C26.5665 4.55101 28.1678 2.95563 30.1431 2.95563C32.1184 2.95563 33.7197 4.55101 33.7197 6.51906Z" fill="#2563EB"/>
<path d="M25.3698 19.585C24.7138 19.585 24.182 19.0532 24.182 18.3972C24.182 15.1172 26.8508 12.4581 30.143 12.4581C33.4352 12.4581 36.104 15.1172 36.104 18.3972" fill="#2563EB"/>
<path d="M24.182 18.3972C24.182 15.1172 26.8508 12.4581 30.143 12.4581C33.4352 12.4581 36.104 15.1172 36.104 18.3972C36.104 19.0532 35.5722 19.585 34.9162 19.585H25.3698C24.7138 19.585 24.182 19.0532 24.182 18.3972Z" stroke="#2563EB" stroke-width="2.0495" stroke-miterlimit="10"/>
</svg>
