<svg width="50" height="53" viewBox="0 0 50 53" fill="none" xmlns="http://www.w3.org/2000/svg">
<path d="M32.3688 32.1544C32.3688 30.7034 31.1925 29.527 29.7414 29.527H6.74351C5.29246 29.527 4.11615 30.7034 4.11615 32.1544C4.11615 32.9446 4.47181 33.6929 5.08458 34.1918L13.5467 41.082C14.4552 41.8218 14.9826 42.9311 14.9826 44.1027V47.2066C14.9826 49.4981 17.2844 51.0744 19.421 50.246C20.6756 49.7596 21.5024 48.5522 21.5024 47.2066V44.1027C21.5024 42.9311 22.0297 41.8218 22.9382 41.082L31.4004 34.1918C32.0131 33.6929 32.3688 32.9446 32.3688 32.1544Z" stroke="#FFE0D0" stroke-width="1.9477" stroke-miterlimit="10"/>
<path d="M10.1231 19.57C11.5334 19.5699 12.6805 18.4306 12.6807 17.0202C12.6807 15.6096 11.5335 14.4695 10.1231 14.4694C8.71262 14.4694 7.56551 15.6095 7.56551 17.0202C7.56572 18.4307 8.71275 19.57 10.1231 19.57Z" stroke="#FFE0D0" stroke-width="1.19784" stroke-miterlimit="10"/>
<path d="M6.14474 27.3163C5.59799 27.3163 5.15477 26.8731 5.15477 26.3264C5.15477 23.5927 7.37904 21.3765 10.1229 21.3765C12.8667 21.3765 15.0911 23.5927 15.0911 26.3264" stroke="#FFE0D0" stroke-width="1.19784" stroke-miterlimit="10"/>
<path d="M28.3331 12.846C28.3331 14.9281 26.639 16.616 24.5491 16.616C22.4593 16.616 20.7651 14.9281 20.7651 12.846C20.7651 10.7638 22.4593 9.07594 24.5491 9.07594C26.639 9.07594 28.3331 10.7638 28.3331 12.846Z" fill="#2563EB"/>
<path d="M19.4992 26.6695C18.8051 26.6695 18.2425 26.1068 18.2425 25.4128C18.2425 21.9426 21.066 19.1294 24.5491 19.1294C28.0321 19.1294 30.8558 21.9426 30.8558 25.4128" fill="#2563EB"/>
<path d="M18.2425 25.4128C18.2425 21.9426 21.066 19.1294 24.5491 19.1294C28.0321 19.1294 30.8558 21.9426 30.8558 25.4128C30.8558 26.1068 30.2931 26.6695 29.5991 26.6695H19.4992C18.8051 26.6695 18.2425 26.1068 18.2425 25.4128Z" stroke="#2563EB" stroke-width="2.16834" stroke-miterlimit="10"/>
</svg>
