<svg width="160" height="62" viewBox="0 0 160 62" fill="none" xmlns="http://www.w3.org/2000/svg">
<path d="M76.632 47C76.152 47 75.912 46.824 75.912 46.472C75.912 46.184 76.12 45.992 76.536 45.896L77.64 45.704C78.312 45.576 78.744 45.4 78.936 45.176C79.16 44.952 79.272 44.504 79.272 43.832V15.608C79.272 14.936 79.16 14.488 78.936 14.264C78.744 14.04 78.312 13.864 77.64 13.736L76.536 13.544C76.12 13.448 75.912 13.256 75.912 12.968C75.912 12.616 76.152 12.44 76.632 12.44H85.416C85.896 12.44 86.136 12.632 86.136 13.016C86.136 13.304 85.96 13.48 85.608 13.544L84.312 13.736C83.64 13.832 83.192 14.008 82.968 14.264C82.776 14.52 82.68 14.984 82.68 15.656V42.536C82.68 43.688 83 44.52 83.64 45.032C84.312 45.544 85.144 45.8 86.136 45.8C86.872 45.8 87.624 45.656 88.392 45.368C89.192 45.048 89.912 44.472 90.552 43.64C91.192 42.776 91.672 41.528 91.992 39.896L92.616 36.68C92.712 36.264 92.952 36.056 93.336 36.056C93.784 36.056 93.976 36.328 93.912 36.872L93.336 45.896C93.272 46.632 92.872 47 92.136 47H76.632ZM104.572 47.432C102.94 47.432 101.468 46.888 100.156 45.8C98.8761 44.68 97.8521 43.16 97.0841 41.24C96.3161 39.32 95.9321 37.176 95.9321 34.808C95.9321 32.44 96.3161 30.312 97.0841 28.424C97.8521 26.536 98.8921 25.032 100.204 23.912C101.516 22.792 102.972 22.232 104.572 22.232C106.204 22.232 107.66 22.792 108.94 23.912C110.252 25.032 111.292 26.536 112.06 28.424C112.828 30.312 113.212 32.44 113.212 34.808C113.212 37.176 112.828 39.32 112.06 41.24C111.324 43.16 110.3 44.68 108.988 45.8C107.676 46.888 106.204 47.432 104.572 47.432ZM104.572 46.232C107.9 46.232 109.564 42.424 109.564 34.808C109.564 27.224 107.9 23.432 104.572 23.432C101.244 23.432 99.5801 27.224 99.5801 34.808C99.5801 42.424 101.244 46.232 104.572 46.232ZM121.814 25.592C123.126 23.352 124.71 22.232 126.566 22.232C127.622 22.232 128.406 22.552 128.918 23.192C129.43 23.8 129.686 24.488 129.686 25.256C129.686 25.864 129.526 26.36 129.206 26.744C128.918 27.128 128.454 27.32 127.814 27.32C127.302 27.32 126.918 27.208 126.662 26.984C126.438 26.728 126.246 26.44 126.086 26.12C125.958 25.8 125.798 25.528 125.606 25.304C125.414 25.048 125.094 24.92 124.646 24.92C124.07 24.92 123.526 25.272 123.014 25.976C122.502 26.648 122.07 27.56 121.718 28.712C121.398 29.864 121.238 31.176 121.238 32.648V43.784C121.238 44.456 121.334 44.936 121.526 45.224C121.75 45.512 122.198 45.688 122.87 45.752L124.166 45.896C124.518 45.96 124.694 46.136 124.694 46.424C124.694 46.808 124.454 47 123.974 47H115.862C115.382 47 115.142 46.824 115.142 46.472C115.142 46.184 115.35 45.992 115.766 45.896L116.342 45.8C117.014 45.672 117.446 45.48 117.638 45.224C117.862 44.936 117.974 44.456 117.974 43.784V27.656C117.974 27.08 117.878 26.696 117.686 26.504C117.526 26.28 117.222 26.136 116.774 26.072L115.766 25.928C115.35 25.896 115.142 25.72 115.142 25.4C115.142 25.144 115.398 24.968 115.91 24.872C116.902 24.712 117.654 24.456 118.166 24.104C118.71 23.752 119.27 23.32 119.846 22.808C120.134 22.52 120.374 22.376 120.566 22.376C120.854 22.376 120.998 22.568 120.998 22.952V25.544C120.998 25.768 121.094 25.912 121.286 25.976C121.478 26.008 121.654 25.88 121.814 25.592ZM135.175 17.96C134.503 17.96 133.927 17.72 133.447 17.24C132.999 16.76 132.775 16.152 132.775 15.416C132.775 14.68 132.999 14.088 133.447 13.64C133.927 13.16 134.503 12.92 135.175 12.92C135.847 12.92 136.407 13.16 136.855 13.64C137.303 14.088 137.527 14.68 137.527 15.416C137.527 16.152 137.303 16.76 136.855 17.24C136.407 17.72 135.847 17.96 135.175 17.96ZM131.143 47C130.663 47 130.423 46.824 130.423 46.472C130.423 46.184 130.631 45.992 131.047 45.896L131.623 45.8C132.423 45.672 132.935 45.48 133.159 45.224C133.383 44.936 133.495 44.456 133.495 43.784V27.656C133.495 27.08 133.399 26.696 133.207 26.504C133.047 26.28 132.743 26.136 132.295 26.072L131.287 25.928C130.871 25.896 130.663 25.72 130.663 25.4C130.663 25.144 130.919 24.968 131.431 24.872C132.423 24.712 133.223 24.456 133.831 24.104C134.439 23.752 135.031 23.32 135.607 22.808C135.895 22.52 136.135 22.376 136.327 22.376C136.615 22.376 136.759 22.568 136.759 22.952V43.784C136.759 44.456 136.855 44.936 137.047 45.224C137.239 45.512 137.607 45.688 138.151 45.752L139.351 45.896C139.703 45.96 139.879 46.136 139.879 46.424C139.879 46.808 139.639 47 139.159 47H131.143ZM146.151 47.432C144.807 47.432 143.703 47.016 142.839 46.184C141.975 45.32 141.543 44.184 141.543 42.776C141.543 41.4 141.975 40.104 142.839 38.888C143.703 37.64 144.887 36.52 146.391 35.528C147.895 34.536 149.607 33.736 151.527 33.128C151.943 33 152.151 32.728 152.151 32.312V27.944C152.151 26.408 151.911 25.32 151.431 24.68C150.951 24.008 150.295 23.672 149.463 23.672C148.663 23.672 147.927 24.04 147.255 24.776C146.615 25.48 146.151 26.68 145.863 28.376C145.703 29.4 145.351 30.152 144.807 30.632C144.295 31.08 143.767 31.304 143.223 31.304C142.327 31.304 141.879 30.856 141.879 29.96C141.879 29.032 142.135 28.12 142.647 27.224C143.191 26.296 143.895 25.464 144.759 24.728C145.623 23.96 146.567 23.352 147.591 22.904C148.615 22.456 149.639 22.232 150.663 22.232C153.831 22.232 155.415 24.072 155.415 27.752V42.44C155.415 43.784 155.751 44.456 156.423 44.456C156.839 44.456 157.223 44.184 157.575 43.64C157.927 43.064 158.103 42.104 158.103 40.76C158.103 40.248 158.311 39.992 158.727 39.992C159.111 39.992 159.303 40.264 159.303 40.808C159.303 43.144 158.887 44.84 158.055 45.896C157.255 46.92 156.343 47.432 155.319 47.432C154.551 47.432 153.943 47.128 153.495 46.52C153.047 45.88 152.743 45.128 152.583 44.264C152.551 43.944 152.407 43.784 152.151 43.784C151.927 43.752 151.703 43.896 151.479 44.216C150.711 45.272 149.927 46.072 149.127 46.616C148.327 47.16 147.335 47.432 146.151 47.432ZM147.447 45.224C148.279 45.224 149.047 44.936 149.751 44.36C150.455 43.752 151.031 42.952 151.479 41.96C151.927 40.968 152.151 39.848 152.151 38.6V35.096C152.151 34.488 151.815 34.312 151.143 34.568C149.191 35.272 147.671 36.248 146.583 37.496C145.527 38.712 144.999 40.184 144.999 41.912C144.999 44.12 145.815 45.224 147.447 45.224Z" fill="black"/>
<rect y="1" width="60" height="60" rx="15" fill="url(#paint0_linear_3_8)"/>
<path d="M30.312 49H29.832C29 49 28.2 48.92 27.432 48.76C26.664 48.6 25.976 48.312 25.368 47.896C24.792 47.48 24.312 46.904 23.928 46.168C23.576 45.432 23.4 44.472 23.4 43.288V14.152H24.168C24.936 14.152 25.688 14.248 26.424 14.44C27.16 14.6 27.816 14.904 28.392 15.352C28.968 15.768 29.432 16.344 29.784 17.08C30.136 17.816 30.312 18.76 30.312 19.912V49ZM40.824 44.392C40.824 44.936 40.712 45.48 40.488 46.024C40.296 46.568 39.992 47.064 39.576 47.512C39.192 47.928 38.68 48.28 38.04 48.568C37.432 48.856 36.728 49 35.928 49H35.736C34.872 49 34.152 48.856 33.576 48.568C33 48.248 32.52 47.88 32.136 47.464C31.784 47.016 31.528 46.552 31.368 46.072C31.24 45.56 31.176 45.112 31.176 44.728C31.176 44.472 31.176 44.248 31.176 44.056C31.208 43.832 31.272 43.592 31.368 43.336C31.784 43.72 32.296 43.912 32.904 43.912C33.384 43.912 33.784 43.768 34.104 43.48C34.424 43.16 34.584 42.696 34.584 42.088V39.736C34.648 39.704 34.856 39.688 35.208 39.688C35.592 39.656 35.896 39.64 36.12 39.64C36.472 39.64 36.92 39.704 37.464 39.832C38.008 39.928 38.52 40.152 39 40.504C39.512 40.856 39.944 41.352 40.296 41.992C40.648 42.6 40.824 43.4 40.824 44.392Z" fill="white"/>
<defs>
<linearGradient id="paint0_linear_3_8" x1="30" y1="1" x2="30" y2="61" gradientUnits="userSpaceOnUse">
<stop stop-color="white"/>
<stop offset="0.802885" stop-color="#DB5000"/>
</linearGradient>
</defs>
</svg>
