<svg width="37" height="42" viewBox="0 0 37 42" fill="none" xmlns="http://www.w3.org/2000/svg">
<g clip-path="url(#clip0_7_948)">
<path d="M27.1367 25.8393H26.6635V25.7839C26.6635 23.8366 25.5691 22.2721 24.1433 21.4697C24.9193 20.7904 25.4107 19.794 25.4107 18.6841C25.4107 16.6422 23.7494 14.9809 21.7075 14.9809C19.6655 14.9809 18.0042 16.6422 18.0042 18.6841C18.0042 19.794 18.4956 20.7904 19.2714 21.4697C17.8423 22.2735 16.7514 23.8418 16.7514 25.7839V25.8393H9.85152C9.13528 25.3148 8.25312 25.004 7.29927 25.004C4.91192 25.004 2.96951 26.9463 2.96951 29.3338C2.96951 30.7401 3.64392 31.9917 4.6861 32.783C2.67708 33.8122 1.29901 35.9047 1.29901 38.3128V39.148C1.29901 39.5788 1.6481 39.9278 2.07882 39.9278H12.9373C13.368 39.9278 13.7171 39.5788 13.7171 39.148V38.3128C13.7171 37.7141 13.6316 37.1349 13.4728 36.5868H26.3569V37.4775C26.3569 37.9081 26.706 38.2573 27.1367 38.2573C27.5674 38.2573 27.9165 37.9081 27.9165 37.4775V26.6191C27.9165 26.1884 27.5674 25.8393 27.1367 25.8393ZM19.5638 18.6841C19.5638 17.5022 20.5254 16.5405 21.7075 16.5405C22.8894 16.5405 23.8511 17.5022 23.8511 18.6841C23.8511 19.866 22.8896 20.8278 21.7075 20.8278C20.5256 20.8278 19.5638 19.866 19.5638 18.6841ZM18.311 25.7839C18.311 23.8784 19.8623 22.3874 21.7075 22.3874C23.5473 22.3874 25.1039 23.8729 25.1039 25.7839V25.8393H18.311V25.7839ZM7.29927 26.5637C8.8266 26.5637 10.0692 27.8063 10.0692 29.3338C10.0692 30.8611 8.8266 32.1038 7.29927 32.1038C5.77174 32.1038 4.52913 30.8611 4.52913 29.3338C4.52913 27.8063 5.77174 26.5637 7.29927 26.5637ZM12.1574 38.3682H2.85863V38.3128C2.85863 35.7492 4.94441 33.6634 7.50804 33.6634C10.0717 33.6634 12.1574 35.7492 12.1574 38.3128V38.3682ZM10.0702 32.6573C11.022 31.8625 11.6288 30.6678 11.6288 29.3338C11.6288 28.6385 11.4633 27.9817 11.1709 27.3989H26.3569V35.0272H12.7742C12.1278 33.9952 11.1871 33.1654 10.0702 32.6573Z" fill="#FFE0D0"/>
<path d="M3.14797 22.0504H15.5245C16.2066 22.0504 16.6156 21.2881 16.2367 20.7197L14.5469 18.1852V13.8603C14.5469 12.1349 13.1549 10.7124 11.3989 10.7124H3.14797C1.40135 10.7124 0 12.1262 0 13.8603V18.9027C0 20.6328 1.39622 22.0504 3.14797 22.0504ZM1.71185 13.8603C1.71185 13.0768 2.3422 12.4242 3.14797 12.4242H11.3989C12.1967 12.4242 12.8351 13.0661 12.8351 13.8603V18.4442C12.8351 18.6131 12.885 18.7783 12.9788 18.919L13.9252 20.3386H3.14797C2.35022 20.3386 1.71185 19.6966 1.71185 18.9025V13.8603Z" fill="#FFE0D0"/>
<path d="M4.52301 15.633H10.0239C10.4964 15.633 10.8798 15.2496 10.8798 14.7771C10.8798 14.3043 10.4964 13.9212 10.0239 13.9212H4.52301C4.05047 13.9212 3.66709 14.3043 3.66709 14.7771C3.66709 15.2496 4.05025 15.633 4.52301 15.633Z" fill="#FFE0D0"/>
<path d="M4.52301 18.8418H7.27356C7.7461 18.8418 8.12948 18.4585 8.12948 17.9859C8.12948 17.5131 7.7461 17.13 7.27356 17.13H4.52301C4.05047 17.13 3.66709 17.5131 3.66709 17.9859C3.66709 18.4585 4.05025 18.8418 4.52301 18.8418Z" fill="#FFE0D0"/>
</g>
<g clip-path="url(#clip1_7_948)">
<path d="M29.2155 0C24.9195 0 21.4247 3.49478 21.4247 7.7908C21.4247 12.0868 24.9195 15.5816 29.2155 15.5816C33.5115 15.5816 37.0063 12.0868 37.0063 7.7908C37.0063 3.49478 33.5115 0 29.2155 0Z" fill="#2563EB"/>
<path d="M33.1641 6.13982L28.9441 10.3598C28.8175 10.4864 28.6513 10.5501 28.4851 10.5501C28.3189 10.5501 28.1527 10.4864 28.0261 10.3598L25.9161 8.24979C25.6622 7.99599 25.6622 7.58562 25.9161 7.33181C26.1699 7.07789 26.5802 7.07789 26.8341 7.33181L28.4851 8.98279L32.2462 5.22185C32.5 4.96792 32.9102 4.96792 33.1641 5.22185C33.4179 5.47565 33.4179 5.8859 33.1641 6.13982Z" fill="#FFE0D0"/>
</g>
<defs>
<clipPath id="clip0_7_948">
<rect width="29.2155" height="29.2155" fill="white" transform="translate(0 10.7124)"/>
</clipPath>
<clipPath id="clip1_7_948">
<rect width="15.5816" height="15.5816" fill="white" transform="translate(21.4247)"/>
</clipPath>
</defs>
</svg>
