<svg width="38" height="42" viewBox="0 0 38 42" fill="none" xmlns="http://www.w3.org/2000/svg">
<path fill-rule="evenodd" clip-rule="evenodd" d="M9.26102 13.8276C8.28805 13.8276 7.49931 14.6113 7.49931 15.578V35.1827C7.49931 36.1494 8.28805 36.9331 9.26102 36.9331H23.3547C24.3276 36.9331 25.1164 36.1494 25.1164 35.1827V21.4762C25.1164 21.0205 24.9375 20.5828 24.6178 20.256L18.8465 14.3579C18.5148 14.0189 18.0592 13.8276 17.5833 13.8276H9.26102ZM5.38525 15.578C5.38525 13.4512 7.12049 11.7271 9.26102 11.7271H17.5833C18.6303 11.7271 19.6326 12.1479 20.3623 12.8936L26.1336 18.7918C26.837 19.5106 27.2305 20.4737 27.2305 21.4762V35.1827C27.2305 37.3095 25.4953 39.0336 23.3547 39.0336H9.26102C7.12049 39.0336 5.38525 37.3095 5.38525 35.1827V15.578Z" fill="#FFE0D0"/>
<path fill-rule="evenodd" clip-rule="evenodd" d="M11.0227 29.5814C11.0227 30.1615 11.496 30.6317 12.0797 30.6317H20.536C21.1197 30.6317 21.593 30.1615 21.593 29.5814C21.593 29.0014 21.1197 28.5311 20.536 28.5311H12.0797C11.496 28.5311 11.0227 29.0014 11.0227 29.5814Z" fill="#FFE0D0"/>
<path fill-rule="evenodd" clip-rule="evenodd" d="M11.0227 23.9801C11.0227 24.5601 11.496 25.0303 12.0797 25.0303H16.3078C16.8917 25.0303 17.3649 24.5601 17.3649 23.9801C17.3649 23.4 16.8917 22.9298 16.3078 22.9298H12.0797C11.496 22.9298 11.0227 23.4 11.0227 23.9801Z" fill="#FFE0D0"/>
<g clip-path="url(#clip0_19_64)">
<path d="M29.2249 0.419022C24.9289 0.419022 21.4341 3.9138 21.4341 8.20982C21.4341 12.5058 24.9289 16.0006 29.2249 16.0006C33.5209 16.0006 37.0157 12.5058 37.0157 8.20982C37.0157 3.9138 33.5209 0.419022 29.2249 0.419022Z" fill="#2563EB"/>
<path d="M33.1735 6.55884L28.9535 10.7788C28.8269 10.9054 28.6607 10.9691 28.4945 10.9691C28.3283 10.9691 28.1621 10.9054 28.0355 10.7788L25.9256 8.66881C25.6716 8.41501 25.6716 8.00464 25.9256 7.75083C26.1794 7.49691 26.5896 7.49691 26.8435 7.75083L28.4945 9.40181L32.2556 5.64087C32.5094 5.38694 32.9196 5.38694 33.1735 5.64087C33.4274 5.89467 33.4274 6.30492 33.1735 6.55884Z" fill="#FFE0D0"/>
</g>
<defs>
<clipPath id="clip0_19_64">
<rect width="15.5816" height="15.5816" fill="white" transform="translate(21.4341 0.419022)"/>
</clipPath>
</defs>
</svg>
