<svg width="37" height="42" viewBox="0 0 37 42" fill="none" xmlns="http://www.w3.org/2000/svg">
<path d="M22.8899 16.407C23.1975 16.722 23.6692 16.8232 24.0832 16.6415L34.816 11.9322C35.1462 11.7874 35.385 11.4831 35.4531 11.1221C35.5205 10.7603 35.4097 10.3879 35.1552 10.1273L32.8553 7.77262L36.6884 3.84824C37.056 3.4718 37.1114 2.88159 36.8201 2.441C36.5298 2.0101 35.9735 1.83317 35.4943 2.04318L24.7616 6.75232C24.4315 6.89729 24.1925 7.20149 24.1245 7.56261C24.057 7.92439 24.1679 8.29683 24.4224 8.55745L26.7223 10.9121L22.8892 14.8365C22.4704 15.2653 22.46 15.9669 22.8899 16.407Z" fill="#2563EB"/>
<path d="M15.6205 4.87598C15.6424 4.87598 15.6669 4.88363 15.6909 4.9082L20.2905 9.61719C20.3155 9.64285 20.3305 9.67875 20.3305 9.72168C20.3305 9.76458 20.3154 9.80049 20.2905 9.82617L17.1537 13.0371L12.3813 8.15234L15.5512 4.9082C15.5751 4.88387 15.5988 4.876 15.6205 4.87598Z" fill="#FFE0D0" stroke="#FFE0D0" stroke-width="1.9477"/>
<path d="M29.4198 19.0036C29.4416 19.0036 29.4661 19.0113 29.4901 19.0359L34.0897 23.7448C34.1148 23.7705 34.1307 23.8065 34.1307 23.8493C34.1307 23.8922 34.1148 23.9281 34.0897 23.9538L30.953 27.1648L26.1805 22.28L29.3504 19.0359C29.3743 19.0115 29.3981 19.0037 29.4198 19.0036Z" fill="#FFE0D0" stroke="#FFE0D0" stroke-width="1.9477"/>
<path d="M8.79102 11.8292C9.17309 11.438 9.80249 11.438 10.1846 11.8292L13.5947 15.3204C13.9643 15.6987 13.9643 16.3033 13.5947 16.6817L9.55762 20.8145C7.07466 23.3566 7.07464 27.4824 9.55762 30.0245C12.0531 32.5792 16.1217 32.5792 18.6172 30.0245L22.5898 25.9561C22.9718 25.5651 23.6013 25.5652 23.9834 25.9561L27.3936 29.4483C27.7631 29.8267 27.7631 30.4303 27.3936 30.8087L23.3564 34.9424C18.2435 40.1768 9.93136 40.1768 4.81836 34.9424C-0.307159 29.6948 -0.307137 21.1441 4.81836 15.8965L8.79102 11.8292Z" stroke="#FFE0D0" stroke-width="1.9477"/>
</svg>
